# xmcd
# 
# Track frame offsets:
#     150
#     12563
#     32786
#     43600
#     60721
#     98715
#     111506
#     130634
#     154183
#     175661
#     193743
#     214270
#     235506
#     250141
# 
# Disc length: 3650
# 
# Revision: 0
# Processed by: cddbd v1.5.2PL0 Copyright (c) Steve Scherf et al.
# Submitted via: fre:ac v1.0.31
# 
DISCID=bc0e400e
DTITLE=The curious bards - (ex)tradition
DYEAR=0
DGENRE=Folk
TTITLE0=The lads of Elgin set
TTITLE1=Sr. Ulick Burk set
TTITLE2=Rakes of Westmeath
TTITLE3=Since sounding drums
TTITLE4=Highland battle
TTITLE5=Lady Herriot Hopes set
TTITLE6=John Nugent set
TTITLE7=The Duel
TTITLE8=Mary O'neill set
TTITLE9=Kilkenny is a handsome place
TTITLE10=Raddire en Ougnish set
TTITLE11=King of the blind
TTITLE12=Miss Loraine of Kirkharles set
TTITLE13=Lady Anne Bothwell's lament
EXTD=
EXTT0=
EXTT1=
EXTT2=
EXTT3=
EXTT4=
EXTT5=
EXTT6=
EXTT7=
EXTT8=
EXTT9=
EXTT10=
EXTT11=
EXTT12=
EXTT13=
PLAYORDER=
